<svg width="900" height="650" viewBox="0 0 900 650" fill="none" xmlns="http://www.w3.org/2000/svg">
  <rect width="900" height="650" rx="36" fill="#f7f2e8"/>
  <rect x="275" y="74" width="350" height="502" rx="18" fill="#2b2923"/>
  <rect x="304" y="102" width="292" height="446" rx="10" fill="#fff9ef"/>
  <rect x="332" y="132" width="236" height="386" rx="8" fill="#e4dfd1"/>
  <path d="M332 390C383 330 420 358 455 313C496 260 526 237 568 264V518H332V390Z" fill="#1f4d45"/>
  <path d="M332 341C393 289 437 309 468 247C498 188 533 180 568 206V518H332V341Z" fill="#d96f32" opacity=".88"/>
  <circle cx="399" cy="212" r="42" fill="#f0c65b"/>
  <path d="M358 463H544" stroke="#fff9ef" stroke-width="12" stroke-linecap="round" opacity=".72"/>
  <path d="M381 488H514" stroke="#fff9ef" stroke-width="8" stroke-linecap="round" opacity=".55"/>
</svg>
